<svg width="30" height="30" viewBox="0 0 30 30" fill="none" xmlns="http://www.w3.org/2000/svg">
<path d="M13.4004 21.813C14.8975 21.813 16.3022 21.4131 17.5327 20.7158L21.3984 24.5918C21.7983 24.9917 22.3521 25.1865 22.9058 25.1865C24.1055 25.1865 24.9976 24.2637 24.9976 23.0845C24.9976 22.541 24.813 22.0078 24.4028 21.5977L20.5679 17.7627C21.3472 16.4912 21.7983 15.0044 21.7983 13.415C21.7983 8.81104 18.0146 5.01709 13.4004 5.01709C8.79639 5.01709 5.00244 8.80078 5.00244 13.415C5.00244 18.0293 8.78613 21.813 13.4004 21.813ZM13.4004 18.8599C10.396 18.8599 7.95557 16.4194 7.95557 13.415C7.95557 10.4209 10.396 7.97021 13.4004 7.97021C16.4048 7.97021 18.8452 10.4209 18.8452 13.415C18.8452 16.4194 16.4048 18.8599 13.4004 18.8599Z" fill="black"/>
</svg>
