<svg width="31" height="31" viewBox="0 0 31 31" fill="none" xmlns="http://www.w3.org/2000/svg">
<path d="M5.6416 22.7334H26.0981C28.0566 22.7334 29.1128 21.708 29.1128 19.7188V7.83447C29.1128 5.85547 28.0566 4.83008 26.0981 4.83008H5.6416C3.68311 4.83008 2.63721 5.85547 2.63721 7.83447V19.7188C2.63721 21.708 3.68311 22.7334 5.6416 22.7334ZM5.84668 20.4775C5.19043 20.4775 4.89307 20.2109 4.89307 19.5239V8.0293C4.89307 7.35254 5.19043 7.08594 5.84668 7.08594H25.9033C26.5596 7.08594 26.8569 7.35254 26.8569 8.0293V19.5239C26.8569 20.2109 26.5596 20.4775 25.9033 20.4775H5.84668ZM10.0815 26.4146H21.6685C22.2324 26.4146 22.6938 25.9429 22.6938 25.3994C22.6938 24.8457 22.2324 24.374 21.6685 24.374H10.0815C9.51758 24.374 9.05615 24.8457 9.05615 25.3994C9.05615 25.9429 9.51758 26.4146 10.0815 26.4146Z" fill="#7F7F7F"/>
</svg>
