<svg width="30" height="30" viewBox="0 0 30 30" fill="none" xmlns="http://www.w3.org/2000/svg">
<path d="M17.9736 23.9253L10.1089 16.2451C9.75 15.8965 9.58594 15.5273 9.58594 15.0967C9.58594 14.6558 9.76025 14.2866 10.1089 13.9482L17.9736 6.25781C18.2402 5.99121 18.5684 5.85791 18.9683 5.85791C19.7578 5.85791 20.4038 6.49365 20.4038 7.2832C20.4038 7.6626 20.2397 8.03174 19.9526 8.31885L12.98 15.0864L19.9526 21.8745C20.2397 22.1514 20.4038 22.5205 20.4038 22.9102C20.4038 23.6997 19.7578 24.3354 18.9683 24.3354C18.5786 24.3354 18.2505 24.1919 17.9736 23.9253Z" fill="black"/>
</svg>
