<svg width="31" height="31" viewBox="0 0 31 31" fill="none" xmlns="http://www.w3.org/2000/svg">
<path d="M5.60303 25.3071H25.147C26.6133 25.3071 27.5669 24.3535 27.5669 22.9077V8.31641C27.5669 6.87061 26.6133 5.91699 25.147 5.91699H5.60303C4.13672 5.91699 3.18311 6.87061 3.18311 8.31641V22.9077C3.18311 24.3535 4.13672 25.3071 5.60303 25.3071ZM5.60303 9.94678C5.31592 9.94678 5.12109 9.75195 5.12109 9.49561V8.51123C5.12109 8.21387 5.32617 8.00879 5.62354 8.00879H6.74121C7.01807 8.00879 7.21289 8.21387 7.21289 8.49072V9.49561C7.21289 9.75195 7.01807 9.94678 6.74121 9.94678H5.60303ZM9.4585 14.561C9.12012 14.561 8.89453 14.3457 8.89453 14.0073V8.5625C8.89453 8.23438 9.12012 8.00879 9.4585 8.00879H21.2607C21.5889 8.00879 21.8145 8.23438 21.8145 8.5625V14.0073C21.8145 14.3457 21.5889 14.561 21.2607 14.561H9.4585ZM23.9678 9.94678C23.6909 9.94678 23.4961 9.75195 23.4961 9.49561V8.49072C23.4961 8.21387 23.6909 8.00879 23.9678 8.00879H25.0854C25.3828 8.00879 25.5879 8.21387 25.5879 8.51123V9.49561C25.5879 9.75195 25.3931 9.94678 25.106 9.94678H23.9678ZM5.60303 13.2793C5.31592 13.2793 5.12109 13.064 5.12109 12.8179V11.8232C5.12109 11.5464 5.31592 11.3413 5.60303 11.3413H6.74121C7.01807 11.3413 7.21289 11.5464 7.21289 11.8232V12.8179C7.21289 13.064 7.01807 13.2793 6.74121 13.2793H5.60303ZM23.9678 13.2793C23.6909 13.2793 23.4961 13.064 23.4961 12.8179V11.8232C23.4961 11.5464 23.6909 11.3413 23.9678 11.3413H25.106C25.3931 11.3413 25.5879 11.5464 25.5879 11.8232V12.8179C25.5879 13.064 25.3931 13.2793 25.106 13.2793H23.9678ZM5.60303 16.5708C5.31592 16.5708 5.12109 16.3657 5.12109 16.1094V15.125C5.12109 14.8379 5.31592 14.6431 5.60303 14.6431H6.74121C7.01807 14.6431 7.21289 14.8379 7.21289 15.125V16.1094C7.21289 16.3657 7.01807 16.5708 6.74121 16.5708H5.60303ZM23.9678 16.5708C23.6909 16.5708 23.4961 16.3657 23.4961 16.1094V15.125C23.4961 14.8379 23.6909 14.6431 23.9678 14.6431H25.106C25.3931 14.6431 25.5879 14.8379 25.5879 15.125V16.1094C25.5879 16.3657 25.3931 16.5708 25.106 16.5708H23.9678ZM9.4585 23.2051C9.12012 23.2051 8.89453 22.9795 8.89453 22.6514V17.2271C8.89453 16.8989 9.12012 16.6733 9.4585 16.6733H21.2607C21.5889 16.6733 21.8145 16.8989 21.8145 17.2271V22.6514C21.8145 22.9795 21.5889 23.2051 21.2607 23.2051H9.4585ZM5.60303 19.8828C5.31592 19.8828 5.12109 19.6675 5.12109 19.4214V18.437C5.12109 18.1499 5.31592 17.9551 5.60303 17.9551H6.74121C7.01807 17.9551 7.21289 18.1499 7.21289 18.437V19.4214C7.21289 19.6675 7.01807 19.8828 6.74121 19.8828H5.60303ZM23.9678 19.8828C23.6909 19.8828 23.4961 19.6675 23.4961 19.4214V18.437C23.4961 18.1499 23.6909 17.9551 23.9678 17.9551H25.106C25.3931 17.9551 25.5879 18.1499 25.5879 18.437V19.4214C25.5879 19.6675 25.3931 19.8828 25.106 19.8828H23.9678ZM5.62354 23.2051C5.32617 23.2051 5.12109 23 5.12109 22.7026V21.7388C5.12109 21.4619 5.31592 21.2671 5.60303 21.2671H6.74121C7.01807 21.2671 7.21289 21.4619 7.21289 21.7388V22.7334C7.21289 23.0103 7.01807 23.2051 6.74121 23.2051H5.62354ZM23.9678 23.2051C23.6909 23.2051 23.4961 23.0103 23.4961 22.7334V21.7388C23.4961 21.4619 23.6909 21.2671 23.9678 21.2671H25.106C25.3931 21.2671 25.5879 21.4619 25.5879 21.7388V22.7026C25.5879 23 25.3828 23.2051 25.0854 23.2051H23.9678Z" fill="#1EC7FA"/>
</svg>
