<svg width="31" height="31" viewBox="0 0 31 31" fill="none" xmlns="http://www.w3.org/2000/svg">
<path d="M5.39111 22.7334H25.8477C27.8062 22.7334 28.8623 21.708 28.8623 19.7188V7.83447C28.8623 5.85547 27.8062 4.83008 25.8477 4.83008H5.39111C3.43262 4.83008 2.38672 5.85547 2.38672 7.83447V19.7188C2.38672 21.708 3.43262 22.7334 5.39111 22.7334ZM5.59619 20.4775C4.93994 20.4775 4.64258 20.2109 4.64258 19.5239V8.0293C4.64258 7.35254 4.93994 7.08594 5.59619 7.08594H25.6528C26.3091 7.08594 26.6064 7.35254 26.6064 8.0293V19.5239C26.6064 20.2109 26.3091 20.4775 25.6528 20.4775H5.59619ZM9.83105 26.4146H21.418C21.9819 26.4146 22.4434 25.9429 22.4434 25.3994C22.4434 24.8457 21.9819 24.374 21.418 24.374H9.83105C9.26709 24.374 8.80566 24.8457 8.80566 25.3994C8.80566 25.9429 9.26709 26.4146 9.83105 26.4146Z" fill="#1EC7FA"/>
</svg>
