<svg id="close" xmlns="http://www.w3.org/2000/svg" width="24" height="24" viewBox="0 0 24 24">
  <rect id="Rectangle_59" data-name="Rectangle 59" width="24" height="24" fill="rgba(255,255,255,0)"/>
  <path id="Path_247" data-name="Path 247" d="M8-13.75A7.749,7.749,0,0,0,.25-6,7.749,7.749,0,0,0,8,1.75,7.749,7.749,0,0,0,15.75-6,7.749,7.749,0,0,0,8-13.75Zm3.8,9.784a.375.375,0,0,1,0,.531L10.562-2.2a.375.375,0,0,1-.531,0L8-4.25,5.966-2.2a.375.375,0,0,1-.531,0L4.2-3.437a.375.375,0,0,1,0-.531L6.25-6,4.2-8.034a.375.375,0,0,1,0-.531L5.437-9.8a.375.375,0,0,1,.531,0L8-7.75,10.034-9.8a.375.375,0,0,1,.531,0L11.8-8.562a.375.375,0,0,1,0,.531L9.75-6Z" transform="translate(4 18)" fill="#fff" opacity="0.3"/>
</svg>
