<svg id="nowifi" xmlns="http://www.w3.org/2000/svg" width="24" height="24" viewBox="0 0 24 24">
  <rect id="Rectangle_59" data-name="Rectangle 59" width="24" height="24" fill="rgba(255,255,255,0)"/>
  <path id="Path_246" data-name="Path 246" d="M.159-9.16a.5.5,0,0,0-.011.718l1.07,1.061a.508.508,0,0,0,.7.012c.218-.2.447-.382.677-.563L.565-9.5C.43-9.385.29-9.281.159-9.16ZM14.9-3.476l1.419-1.413a.5.5,0,0,0-.018-.724A9.474,9.474,0,0,0,9.1-7.956l-2.6-2.008a11.963,11.963,0,0,1,11.576,2.6.508.508,0,0,0,.7-.012l1.07-1.061a.5.5,0,0,0-.011-.718A14.526,14.526,0,0,0,4.169-11.77L1.421-13.895a.5.5,0,0,0-.7.088l-.614.79a.5.5,0,0,0,.088.7L18.579,1.895a.5.5,0,0,0,.7-.088l.614-.79a.5.5,0,0,0-.088-.7ZM3.7-5.613a.5.5,0,0,0-.018.724L4.751-3.826a.505.505,0,0,0,.686.025,6.853,6.853,0,0,1,1.348-.892L4.648-6.344A9.364,9.364,0,0,0,3.7-5.613ZM8-1a2,2,0,0,0,2,2A2,2,0,0,0,11.968-.687L9.2-2.829A2,2,0,0,0,8-1Z" transform="translate(2 18)" fill="#fff"/>
</svg>
