<svg id="wifi" xmlns="http://www.w3.org/2000/svg" width="24" height="24" viewBox="0 0 24 24">
  <rect id="Rectangle_59" data-name="Rectangle 59" width="24" height="24" fill="rgba(255,255,255,0)"/>
  <path id="Path_245" data-name="Path 245" d="M10.064-9.117a14.693,14.693,0,0,0-19.9,0,.5.5,0,0,0-.011.726l1.082,1.073a.513.513,0,0,0,.708.012,12.124,12.124,0,0,1,16.346,0,.513.513,0,0,0,.708-.012l1.082-1.073A.5.5,0,0,0,10.064-9.117ZM.112-2.888A2.022,2.022,0,0,0-1.91-.865,2.022,2.022,0,0,0,.112,1.157,2.022,2.022,0,0,0,2.135-.865,2.022,2.022,0,0,0,.112-2.888Zm6.4-2.642a9.7,9.7,0,0,0-12.809,0A.5.5,0,0,0-6.31-4.8l1.088,1.074a.516.516,0,0,0,.7.025,7.117,7.117,0,0,1,9.275,0,.515.515,0,0,0,.7-.025L6.535-4.8A.5.5,0,0,0,6.517-5.529Z" transform="translate(11.688 18)" fill="#fff"/>
</svg>
