<svg width="31" height="31" viewBox="0 0 31 31" fill="none" xmlns="http://www.w3.org/2000/svg">
<path d="M5.85352 25.3071H25.3975C26.8638 25.3071 27.8174 24.3535 27.8174 22.9077V8.31641C27.8174 6.87061 26.8638 5.91699 25.3975 5.91699H5.85352C4.38721 5.91699 3.43359 6.87061 3.43359 8.31641V22.9077C3.43359 24.3535 4.38721 25.3071 5.85352 25.3071ZM5.85352 9.94678C5.56641 9.94678 5.37158 9.75195 5.37158 9.49561V8.51123C5.37158 8.21387 5.57666 8.00879 5.87402 8.00879H6.9917C7.26855 8.00879 7.46338 8.21387 7.46338 8.49072V9.49561C7.46338 9.75195 7.26855 9.94678 6.9917 9.94678H5.85352ZM9.70898 14.561C9.37061 14.561 9.14502 14.3457 9.14502 14.0073V8.5625C9.14502 8.23438 9.37061 8.00879 9.70898 8.00879H21.5112C21.8394 8.00879 22.0649 8.23438 22.0649 8.5625V14.0073C22.0649 14.3457 21.8394 14.561 21.5112 14.561H9.70898ZM24.2183 9.94678C23.9414 9.94678 23.7466 9.75195 23.7466 9.49561V8.49072C23.7466 8.21387 23.9414 8.00879 24.2183 8.00879H25.3359C25.6333 8.00879 25.8384 8.21387 25.8384 8.51123V9.49561C25.8384 9.75195 25.6436 9.94678 25.3564 9.94678H24.2183ZM5.85352 13.2793C5.56641 13.2793 5.37158 13.064 5.37158 12.8179V11.8232C5.37158 11.5464 5.56641 11.3413 5.85352 11.3413H6.9917C7.26855 11.3413 7.46338 11.5464 7.46338 11.8232V12.8179C7.46338 13.064 7.26855 13.2793 6.9917 13.2793H5.85352ZM24.2183 13.2793C23.9414 13.2793 23.7466 13.064 23.7466 12.8179V11.8232C23.7466 11.5464 23.9414 11.3413 24.2183 11.3413H25.3564C25.6436 11.3413 25.8384 11.5464 25.8384 11.8232V12.8179C25.8384 13.064 25.6436 13.2793 25.3564 13.2793H24.2183ZM5.85352 16.5708C5.56641 16.5708 5.37158 16.3657 5.37158 16.1094V15.125C5.37158 14.8379 5.56641 14.6431 5.85352 14.6431H6.9917C7.26855 14.6431 7.46338 14.8379 7.46338 15.125V16.1094C7.46338 16.3657 7.26855 16.5708 6.9917 16.5708H5.85352ZM24.2183 16.5708C23.9414 16.5708 23.7466 16.3657 23.7466 16.1094V15.125C23.7466 14.8379 23.9414 14.6431 24.2183 14.6431H25.3564C25.6436 14.6431 25.8384 14.8379 25.8384 15.125V16.1094C25.8384 16.3657 25.6436 16.5708 25.3564 16.5708H24.2183ZM9.70898 23.2051C9.37061 23.2051 9.14502 22.9795 9.14502 22.6514V17.2271C9.14502 16.8989 9.37061 16.6733 9.70898 16.6733H21.5112C21.8394 16.6733 22.0649 16.8989 22.0649 17.2271V22.6514C22.0649 22.9795 21.8394 23.2051 21.5112 23.2051H9.70898ZM5.85352 19.8828C5.56641 19.8828 5.37158 19.6675 5.37158 19.4214V18.437C5.37158 18.1499 5.56641 17.9551 5.85352 17.9551H6.9917C7.26855 17.9551 7.46338 18.1499 7.46338 18.437V19.4214C7.46338 19.6675 7.26855 19.8828 6.9917 19.8828H5.85352ZM24.2183 19.8828C23.9414 19.8828 23.7466 19.6675 23.7466 19.4214V18.437C23.7466 18.1499 23.9414 17.9551 24.2183 17.9551H25.3564C25.6436 17.9551 25.8384 18.1499 25.8384 18.437V19.4214C25.8384 19.6675 25.6436 19.8828 25.3564 19.8828H24.2183ZM5.87402 23.2051C5.57666 23.2051 5.37158 23 5.37158 22.7026V21.7388C5.37158 21.4619 5.56641 21.2671 5.85352 21.2671H6.9917C7.26855 21.2671 7.46338 21.4619 7.46338 21.7388V22.7334C7.46338 23.0103 7.26855 23.2051 6.9917 23.2051H5.87402ZM24.2183 23.2051C23.9414 23.2051 23.7466 23.0103 23.7466 22.7334V21.7388C23.7466 21.4619 23.9414 21.2671 24.2183 21.2671H25.3564C25.6436 21.2671 25.8384 21.4619 25.8384 21.7388V22.7026C25.8384 23 25.6333 23.2051 25.3359 23.2051H24.2183Z" fill="#7F7F7F"/>
</svg>
